<svg width="640" height="700" viewBox="0 0 640 700" fill="none" xmlns="http://www.w3.org/2000/svg">
<g clip-path="url(#clip0_101_2)">
<path fill-rule="evenodd" clip-rule="evenodd" d="M-0.5 159.5C26.1667 159.5 52.8333 159.5 79.5 159.5C79.5 166.167 79.5 172.833 79.5 179.5C86.1667 179.5 92.8333 179.5 99.5 179.5C99.5 219.5 99.5 259.5 99.5 299.5C92.8333 299.5 86.1667 299.5 79.5 299.5C79.5 306.167 79.5 312.833 79.5 319.5C72.8333 319.5 66.1667 319.5 59.5 319.5C59.5 352.833 59.5 386.167 59.5 419.5C66.1667 419.5 72.8333 419.5 79.5 419.5C79.5 426.167 79.5 432.833 79.5 439.5C92.8333 439.5 106.167 439.5 119.5 439.5C119.5 446.167 119.5 452.833 119.5 459.5C132.833 459.5 146.167 459.5 159.5 459.5C159.5 466.167 159.5 472.833 159.5 479.5C152.833 479.5 146.167 479.5 139.5 479.5C126.167 479.5 112.833 479.5 99.5 479.5C99.5 472.833 99.5 466.167 99.5 459.5C86.1667 459.5 72.8333 459.5 59.5 459.5C59.5 452.833 59.5 446.167 59.5 439.5C52.8333 439.5 46.1667 439.5 39.5 439.5C39.5 392.833 39.5 346.167 39.5 299.5C46.1667 299.5 52.8333 299.5 59.5 299.5C59.5 292.833 59.5 286.167 59.5 279.5C66.1667 279.5 72.8333 279.5 79.5 279.5C79.5 266.167 79.5 252.833 79.5 239.5C79.5 232.833 79.5 226.167 79.5 219.5C72.8333 219.5 66.1667 219.5 59.5 219.5C52.8333 219.5 46.1667 219.5 39.5 219.5C39.5 212.833 39.5 206.167 39.5 199.5C39.5 192.833 39.5 186.167 39.5 179.5C32.8333 179.5 26.1667 179.5 19.5 179.5C19.5 186.167 19.5 192.833 19.5 199.5C12.8333 199.5 6.16667 199.5 -0.5 199.5C-0.5 186.167 -0.5 172.833 -0.5 159.5Z" fill="#F05B2E"/>
<path fill-rule="evenodd" clip-rule="evenodd" d="M39.5 199.5C32.8333 199.5 26.1667 199.5 19.5 199.5C19.5 192.833 19.5 186.167 19.5 179.5C26.1667 179.5 32.8333 179.5 39.5 179.5C39.5 186.167 39.5 192.833 39.5 199.5Z" fill="#613030"/>
<path fill-rule="evenodd" clip-rule="evenodd" d="M59.5 219.5C66.1667 219.5 72.8333 219.5 79.5 219.5C79.5 226.167 79.5 232.833 79.5 239.5C72.8333 239.5 66.1667 239.5 59.5 239.5C59.5 232.833 59.5 226.167 59.5 219.5Z" fill="#613030"/>
<path fill-rule="evenodd" clip-rule="evenodd" d="M639.5 179.5C639.5 192.833 639.5 206.167 639.5 219.5C626.167 219.5 612.833 219.5 599.5 219.5C599.5 212.833 599.5 206.167 599.5 199.5C592.833 199.5 586.167 199.5 579.5 199.5C579.5 206.167 579.5 212.833 579.5 219.5C579.5 226.167 579.5 232.833 579.5 239.5C572.833 239.5 566.167 239.5 559.5 239.5C552.833 239.5 546.167 239.5 539.5 239.5C539.5 246.167 539.5 252.833 539.5 259.5C539.5 272.833 539.5 286.167 539.5 299.5C546.167 299.5 552.833 299.5 559.5 299.5C559.5 332.833 559.5 366.167 559.5 399.5C552.833 399.5 546.167 399.5 539.5 399.5C539.5 412.833 539.5 426.167 539.5 439.5C532.833 439.5 526.167 439.5 519.5 439.5C519.5 452.833 519.5 466.167 519.5 479.5C499.5 479.5 479.5 479.5 459.5 479.5C452.833 479.5 446.167 479.5 439.5 479.5C439.5 472.833 439.5 466.167 439.5 459.5C459.5 459.5 479.5 459.5 499.5 459.5C499.5 446.167 499.5 432.833 499.5 419.5C506.167 419.5 512.833 419.5 519.5 419.5C519.5 406.167 519.5 392.833 519.5 379.5C526.167 379.5 532.833 379.5 539.5 379.5C539.5 359.5 539.5 339.5 539.5 319.5C532.833 319.5 526.167 319.5 519.5 319.5C519.5 279.5 519.5 239.5 519.5 199.5C526.167 199.5 532.833 199.5 539.5 199.5C539.5 192.833 539.5 186.167 539.5 179.5C572.833 179.5 606.167 179.5 639.5 179.5Z" fill="#F05B2E"/>
<path fill-rule="evenodd" clip-rule="evenodd" d="M599.5 219.5C592.833 219.5 586.167 219.5 579.5 219.5C579.5 212.833 579.5 206.167 579.5 199.5C586.167 199.5 592.833 199.5 599.5 199.5C599.5 206.167 599.5 212.833 599.5 219.5Z" fill="#613030"/>
<path fill-rule="evenodd" clip-rule="evenodd" d="M559.5 239.5C559.5 246.167 559.5 252.833 559.5 259.5C552.833 259.5 546.167 259.5 539.5 259.5C539.5 252.833 539.5 246.167 539.5 239.5C546.167 239.5 552.833 239.5 559.5 239.5Z" fill="#613030"/>
<path fill-rule="evenodd" clip-rule="evenodd" d="M279.5 -0.5C292.833 -0.5 306.167 -0.5 319.5 -0.5C319.5 6.16667 319.5 12.8333 319.5 19.5C326.167 19.5 332.833 19.5 339.5 19.5C339.5 26.1667 339.5 32.8333 339.5 39.5C346.167 39.5 352.833 39.5 359.5 39.5C359.5 46.1667 359.5 52.8333 359.5 59.5C366.167 59.5 372.833 59.5 379.5 59.5C379.5 72.8333 379.5 86.1667 379.5 99.5C386.167 99.5 392.833 99.5 399.5 99.5C399.5 106.167 399.5 112.833 399.5 119.5C399.5 126.167 399.5 132.833 399.5 139.5C406.167 139.5 412.833 139.5 419.5 139.5C419.5 152.833 419.5 166.167 419.5 179.5C426.167 179.5 432.833 179.5 439.5 179.5C439.5 192.833 439.5 206.167 439.5 219.5C446.167 219.5 452.833 219.5 459.5 219.5C459.5 232.833 459.5 246.167 459.5 259.5C466.167 259.5 472.833 259.5 479.5 259.5C479.5 272.833 479.5 286.167 479.5 299.5C466.167 299.5 452.833 299.5 439.5 299.5C439.5 306.167 439.5 312.833 439.5 319.5C432.833 319.5 426.167 319.5 419.5 319.5C419.5 312.833 419.5 306.167 419.5 299.5C406.167 299.5 392.833 299.5 379.5 299.5C366.167 299.5 352.833 299.5 339.5 299.5C312.833 299.5 286.167 299.5 259.5 299.5C232.833 299.5 206.167 299.5 179.5 299.5C179.5 306.167 179.5 312.833 179.5 319.5C172.833 319.5 166.167 319.5 159.5 319.5C159.5 312.833 159.5 306.167 159.5 299.5C146.167 299.5 132.833 299.5 119.5 299.5C119.5 286.167 119.5 272.833 119.5 259.5C126.167 259.5 132.833 259.5 139.5 259.5C139.5 246.167 139.5 232.833 139.5 219.5C146.167 219.5 152.833 219.5 159.5 219.5C159.5 206.167 159.5 192.833 159.5 179.5C166.167 179.5 172.833 179.5 179.5 179.5C179.5 166.167 179.5 152.833 179.5 139.5C186.167 139.5 192.833 139.5 199.5 139.5C199.5 132.833 199.5 126.167 199.5 119.5C199.5 112.833 199.5 106.167 199.5 99.5C206.167 99.5 212.833 99.5 219.5 99.5C219.5 86.1667 219.5 72.8333 219.5 59.5C226.167 59.5 232.833 59.5 239.5 59.5C239.5 52.8333 239.5 46.1667 239.5 39.5C246.167 39.5 252.833 39.5 259.5 39.5C259.5 32.8333 259.5 26.1667 259.5 19.5C266.167 19.5 272.833 19.5 279.5 19.5C279.5 12.8333 279.5 6.16667 279.5 -0.5Z" fill="#FC6B41"/>
<path fill-rule="evenodd" clip-rule="evenodd" d="M259.5 19.5C259.5 26.1667 259.5 32.8333 259.5 39.5C252.833 39.5 246.167 39.5 239.5 39.5C239.5 46.1667 239.5 52.8333 239.5 59.5C232.833 59.5 226.167 59.5 219.5 59.5C219.5 72.8333 219.5 86.1667 219.5 99.5C212.833 99.5 206.167 99.5 199.5 99.5C199.5 106.167 199.5 112.833 199.5 119.5C192.833 119.5 186.167 119.5 179.5 119.5C179.5 112.833 179.5 106.167 179.5 99.5C172.833 99.5 166.167 99.5 159.5 99.5C159.5 86.1667 159.5 72.8333 159.5 59.5C166.167 59.5 172.833 59.5 179.5 59.5C179.5 52.8333 179.5 46.1667 179.5 39.5C186.167 39.5 192.833 39.5 199.5 39.5C199.5 32.8333 199.5 26.1667 199.5 19.5C219.5 19.5 239.5 19.5 259.5 19.5Z" fill="#F05B2E"/>
<path fill-rule="evenodd" clip-rule="evenodd" d="M339.5 19.5C359.5 19.5 379.5 19.5 399.5 19.5C399.5 26.1667 399.5 32.8333 399.5 39.5C406.167 39.5 412.833 39.5 419.5 39.5C419.5 46.1667 419.5 52.8333 419.5 59.5C426.167 59.5 432.833 59.5 439.5 59.5C439.5 72.8333 439.5 86.1667 439.5 99.5C432.833 99.5 426.167 99.5 419.5 99.5C419.5 106.167 419.5 112.833 419.5 119.5C412.833 119.5 406.167 119.5 399.5 119.5C399.5 112.833 399.5 106.167 399.5 99.5C392.833 99.5 386.167 99.5 379.5 99.5C379.5 86.1667 379.5 72.8333 379.5 59.5C372.833 59.5 366.167 59.5 359.5 59.5C359.5 52.8333 359.5 46.1667 359.5 39.5C352.833 39.5 346.167 39.5 339.5 39.5C339.5 32.8333 339.5 26.1667 339.5 19.5Z" fill="#F05B2E"/>
<path fill-rule="evenodd" clip-rule="evenodd" d="M299.5 39.5C306.167 39.5 312.833 39.5 319.5 39.5C319.5 46.1667 319.5 52.8333 319.5 59.5C312.833 59.5 306.167 59.5 299.5 59.5C299.5 52.8333 299.5 46.1667 299.5 39.5Z" fill="#FD8356"/>
<path fill-rule="evenodd" clip-rule="evenodd" d="M279.5 79.5C286.167 79.5 292.833 79.5 299.5 79.5C299.5 86.1667 299.5 92.8333 299.5 99.5C292.833 99.5 286.167 99.5 279.5 99.5C279.5 92.8333 279.5 86.1667 279.5 79.5Z" fill="#FE9062"/>
<path fill-rule="evenodd" clip-rule="evenodd" d="M239.5 119.5C246.167 119.5 252.833 119.5 259.5 119.5C259.5 126.167 259.5 132.833 259.5 139.5C252.833 139.5 246.167 139.5 239.5 139.5C239.5 132.833 239.5 126.167 239.5 119.5Z" fill="#FD8356"/>
<path fill-rule="evenodd" clip-rule="evenodd" d="M299.5 119.5C306.167 119.5 312.833 119.5 319.5 119.5C319.5 126.167 319.5 132.833 319.5 139.5C312.833 139.5 306.167 139.5 299.5 139.5C299.5 132.833 299.5 126.167 299.5 119.5Z" fill="#FE9062"/>
<path fill-rule="evenodd" clip-rule="evenodd" d="M239.5 179.5C246.167 179.5 252.833 179.5 259.5 179.5C259.5 186.167 259.5 192.833 259.5 199.5C252.833 199.5 246.167 199.5 239.5 199.5C239.5 192.833 239.5 186.167 239.5 179.5Z" fill="#FE9062"/>
<path fill-rule="evenodd" clip-rule="evenodd" d="M299.5 179.5C306.167 179.5 312.833 179.5 319.5 179.5C319.5 186.167 319.5 192.833 319.5 199.5C312.833 199.5 306.167 199.5 299.5 199.5C299.5 192.833 299.5 186.167 299.5 179.5Z" fill="#FD8356"/>
<path fill-rule="evenodd" clip-rule="evenodd" d="M339.5 179.5C346.167 179.5 352.833 179.5 359.5 179.5C359.5 186.167 359.5 192.833 359.5 199.5C352.833 199.5 346.167 199.5 339.5 199.5C339.5 192.833 339.5 186.167 339.5 179.5Z" fill="#FE9062"/>
<path fill-rule="evenodd" clip-rule="evenodd" d="M299.5 219.5C306.167 219.5 312.833 219.5 319.5 219.5C319.5 226.167 319.5 232.833 319.5 239.5C312.833 239.5 306.167 239.5 299.5 239.5C299.5 232.833 299.5 226.167 299.5 219.5Z" fill="#FE9062"/>
<path fill-rule="evenodd" clip-rule="evenodd" d="M219.5 239.5C226.167 239.5 232.833 239.5 239.5 239.5C239.5 246.167 239.5 252.833 239.5 259.5C232.833 259.5 226.167 259.5 219.5 259.5C219.5 252.833 219.5 246.167 219.5 239.5Z" fill="#FD8356"/>
<path fill-rule="evenodd" clip-rule="evenodd" d="M379.5 259.5C386.167 259.5 392.833 259.5 399.5 259.5C399.5 266.167 399.5 272.833 399.5 279.5C392.833 279.5 386.167 279.5 379.5 279.5C379.5 272.833 379.5 266.167 379.5 259.5Z" fill="#FD8356"/>
<path fill-rule="evenodd" clip-rule="evenodd" d="M259.5 299.5C259.5 306.167 259.5 312.833 259.5 319.5C239.5 319.5 219.5 319.5 199.5 319.5C199.5 326.167 199.5 332.833 199.5 339.5C192.833 339.5 186.167 339.5 179.5 339.5C179.5 332.833 179.5 326.167 179.5 319.5C179.5 312.833 179.5 306.167 179.5 299.5C206.167 299.5 232.833 299.5 259.5 299.5Z" fill="#D34B17"/>
<path fill-rule="evenodd" clip-rule="evenodd" d="M259.5 299.5C286.167 299.5 312.833 299.5 339.5 299.5C339.5 306.167 339.5 312.833 339.5 319.5C332.833 319.5 326.167 319.5 319.5 319.5C319.5 326.167 319.5 332.833 319.5 339.5C306.167 339.5 292.833 339.5 279.5 339.5C279.5 332.833 279.5 326.167 279.5 319.5C272.833 319.5 266.167 319.5 259.5 319.5C259.5 312.833 259.5 306.167 259.5 299.5Z" fill="#F05B2E"/>
<path fill-rule="evenodd" clip-rule="evenodd" d="M339.5 299.5C352.833 299.5 366.167 299.5 379.5 299.5C379.5 306.167 379.5 312.833 379.5 319.5C366.167 319.5 352.833 319.5 339.5 319.5C339.5 312.833 339.5 306.167 339.5 299.5Z" fill="#D34B17"/>
<path fill-rule="evenodd" clip-rule="evenodd" d="M379.5 299.5C392.833 299.5 406.167 299.5 419.5 299.5C419.5 306.167 419.5 312.833 419.5 319.5C419.5 346.167 419.5 372.833 419.5 399.5C412.833 399.5 406.167 399.5 399.5 399.5C399.5 392.833 399.5 386.167 399.5 379.5C392.833 379.5 386.167 379.5 379.5 379.5C379.5 372.833 379.5 366.167 379.5 359.5C372.833 359.5 366.167 359.5 359.5 359.5C359.5 366.167 359.5 372.833 359.5 379.5C352.833 379.5 346.167 379.5 339.5 379.5C339.5 359.5 339.5 339.5 339.5 319.5C352.833 319.5 366.167 319.5 379.5 319.5C379.5 312.833 379.5 306.167 379.5 299.5Z" fill="#F05B2E"/>
<path fill-rule="evenodd" clip-rule="evenodd" d="M259.5 319.5C259.5 339.5 259.5 359.5 259.5 379.5C252.833 379.5 246.167 379.5 239.5 379.5C239.5 372.833 239.5 366.167 239.5 359.5C226.167 359.5 212.833 359.5 199.5 359.5C199.5 366.167 199.5 372.833 199.5 379.5C192.833 379.5 186.167 379.5 179.5 379.5C179.5 366.167 179.5 352.833 179.5 339.5C186.167 339.5 192.833 339.5 199.5 339.5C199.5 332.833 199.5 326.167 199.5 319.5C219.5 319.5 239.5 319.5 259.5 319.5Z" fill="#F05B2E"/>
<path fill-rule="evenodd" clip-rule="evenodd" d="M259.5 319.5C266.167 319.5 272.833 319.5 279.5 319.5C279.5 326.167 279.5 332.833 279.5 339.5C279.5 352.833 279.5 366.167 279.5 379.5C279.5 386.167 279.5 392.833 279.5 399.5C272.833 399.5 266.167 399.5 259.5 399.5C259.5 392.833 259.5 386.167 259.5 379.5C259.5 359.5 259.5 339.5 259.5 319.5Z" fill="#D34B17"/>
<path fill-rule="evenodd" clip-rule="evenodd" d="M339.5 319.5C339.5 339.5 339.5 359.5 339.5 379.5C339.5 386.167 339.5 392.833 339.5 399.5C332.833 399.5 326.167 399.5 319.5 399.5C319.5 392.833 319.5 386.167 319.5 379.5C319.5 366.167 319.5 352.833 319.5 339.5C319.5 332.833 319.5 326.167 319.5 319.5C326.167 319.5 332.833 319.5 339.5 319.5Z" fill="#D34B17"/>
<path fill-rule="evenodd" clip-rule="evenodd" d="M279.5 339.5C292.833 339.5 306.167 339.5 319.5 339.5C319.5 352.833 319.5 366.167 319.5 379.5C306.167 379.5 292.833 379.5 279.5 379.5C279.5 366.167 279.5 352.833 279.5 339.5Z" fill="#FB6B40"/>
<path fill-rule="evenodd" clip-rule="evenodd" d="M379.5 379.5C372.833 379.5 366.167 379.5 359.5 379.5C359.5 372.833 359.5 366.167 359.5 359.5C366.167 359.5 372.833 359.5 379.5 359.5C379.5 366.167 379.5 372.833 379.5 379.5Z" fill="#FB6B40"/>
<path fill-rule="evenodd" clip-rule="evenodd" d="M239.5 379.5C239.5 386.167 239.5 392.833 239.5 399.5C232.833 399.5 226.167 399.5 219.5 399.5C219.5 392.833 219.5 386.167 219.5 379.5C226.167 379.5 232.833 379.5 239.5 379.5Z" fill="#030000"/>
<path fill-rule="evenodd" clip-rule="evenodd" d="M239.5 379.5C246.167 379.5 252.833 379.5 259.5 379.5C259.5 386.167 259.5 392.833 259.5 399.5C252.833 399.5 246.167 399.5 239.5 399.5C239.5 392.833 239.5 386.167 239.5 379.5Z" fill="#F7F8F7"/>
<path fill-rule="evenodd" clip-rule="evenodd" d="M279.5 379.5C292.833 379.5 306.167 379.5 319.5 379.5C319.5 386.167 319.5 392.833 319.5 399.5C319.5 406.167 319.5 412.833 319.5 419.5C306.167 419.5 292.833 419.5 279.5 419.5C279.5 412.833 279.5 406.167 279.5 399.5C279.5 392.833 279.5 386.167 279.5 379.5Z" fill="#FD8356"/>
<path fill-rule="evenodd" clip-rule="evenodd" d="M339.5 379.5C346.167 379.5 352.833 379.5 359.5 379.5C359.5 386.167 359.5 392.833 359.5 399.5C352.833 399.5 346.167 399.5 339.5 399.5C339.5 392.833 339.5 386.167 339.5 379.5Z" fill="#F7F8F7"/>
<path fill-rule="evenodd" clip-rule="evenodd" d="M359.5 379.5C366.167 379.5 372.833 379.5 379.5 379.5C379.5 386.167 379.5 392.833 379.5 399.5C372.833 399.5 366.167 399.5 359.5 399.5C359.5 392.833 359.5 386.167 359.5 379.5Z" fill="#030000"/>
<path fill-rule="evenodd" clip-rule="evenodd" d="M219.5 399.5C226.167 399.5 232.833 399.5 239.5 399.5C239.5 406.167 239.5 412.833 239.5 419.5C232.833 419.5 226.167 419.5 219.5 419.5C219.5 412.833 219.5 406.167 219.5 399.5Z" fill="#340E0F"/>
<path fill-rule="evenodd" clip-rule="evenodd" d="M239.5 399.5C246.167 399.5 252.833 399.5 259.5 399.5C259.5 406.167 259.5 412.833 259.5 419.5C252.833 419.5 246.167 419.5 239.5 419.5C239.5 412.833 239.5 406.167 239.5 399.5Z" fill="#030000"/>
<path fill-rule="evenodd" clip-rule="evenodd" d="M259.5 399.5C266.167 399.5 272.833 399.5 279.5 399.5C279.5 406.167 279.5 412.833 279.5 419.5C272.833 419.5 266.167 419.5 259.5 419.5C259.5 412.833 259.5 406.167 259.5 399.5Z" fill="#ED572A"/>
<path fill-rule="evenodd" clip-rule="evenodd" d="M319.5 399.5C326.167 399.5 332.833 399.5 339.5 399.5C339.5 406.167 339.5 412.833 339.5 419.5C332.833 419.5 326.167 419.5 319.5 419.5C319.5 412.833 319.5 406.167 319.5 399.5Z" fill="#ED572A"/>
<path fill-rule="evenodd" clip-rule="evenodd" d="M339.5 399.5C346.167 399.5 352.833 399.5 359.5 399.5C359.5 406.167 359.5 412.833 359.5 419.5C352.833 419.5 346.167 419.5 339.5 419.5C339.5 412.833 339.5 406.167 339.5 399.5Z" fill="#030000"/>
<path fill-rule="evenodd" clip-rule="evenodd" d="M359.5 399.5C366.167 399.5 372.833 399.5 379.5 399.5C379.5 406.167 379.5 412.833 379.5 419.5C372.833 419.5 366.167 419.5 359.5 419.5C359.5 412.833 359.5 406.167 359.5 399.5Z" fill="#340E0F"/>
<path fill-rule="evenodd" clip-rule="evenodd" d="M279.5 419.5C292.833 419.5 306.167 419.5 319.5 419.5C319.5 426.167 319.5 432.833 319.5 439.5C306.167 439.5 292.833 439.5 279.5 439.5C279.5 432.833 279.5 426.167 279.5 419.5Z" fill="#ED572A"/>
<path fill-rule="evenodd" clip-rule="evenodd" d="M239.5 379.5C232.833 379.5 226.167 379.5 219.5 379.5C219.5 386.167 219.5 392.833 219.5 399.5C219.5 406.167 219.5 412.833 219.5 419.5C226.167 419.5 232.833 419.5 239.5 419.5C246.167 419.5 252.833 419.5 259.5 419.5C266.167 419.5 272.833 419.5 279.5 419.5C279.5 426.167 279.5 432.833 279.5 439.5C292.833 439.5 306.167 439.5 319.5 439.5C319.5 432.833 319.5 426.167 319.5 419.5C326.167 419.5 332.833 419.5 339.5 419.5C346.167 419.5 352.833 419.5 359.5 419.5C366.167 419.5 372.833 419.5 379.5 419.5C379.5 412.833 379.5 406.167 379.5 399.5C379.5 392.833 379.5 386.167 379.5 379.5C386.167 379.5 392.833 379.5 399.5 379.5C399.5 386.167 399.5 392.833 399.5 399.5C406.167 399.5 412.833 399.5 419.5 399.5C419.5 412.833 419.5 426.167 419.5 439.5C426.167 439.5 432.833 439.5 439.5 439.5C439.5 446.167 439.5 452.833 439.5 459.5C439.5 466.167 439.5 472.833 439.5 479.5C446.167 479.5 452.833 479.5 459.5 479.5C459.5 492.833 459.5 506.167 459.5 519.5C466.167 519.5 472.833 519.5 479.5 519.5C479.5 526.167 479.5 532.833 479.5 539.5C486.167 539.5 492.833 539.5 499.5 539.5C499.5 546.167 499.5 552.833 499.5 559.5C499.5 566.167 499.5 572.833 499.5 579.5C506.167 579.5 512.833 579.5 519.5 579.5C519.5 572.833 519.5 566.167 519.5 559.5C526.167 559.5 532.833 559.5 539.5 559.5C539.5 566.167 539.5 572.833 539.5 579.5C546.167 579.5 552.833 579.5 559.5 579.5C559.5 586.167 559.5 592.833 559.5 599.5C546.167 599.5 532.833 599.5 519.5 599.5C499.5 599.5 479.5 599.5 459.5 599.5C459.5 592.833 459.5 586.167 459.5 579.5C446.167 579.5 432.833 579.5 419.5 579.5C419.5 572.833 419.5 566.167 419.5 559.5C406.167 559.5 392.833 559.5 379.5 559.5C379.5 566.167 379.5 572.833 379.5 579.5C386.167 579.5 392.833 579.5 399.5 579.5C399.5 586.167 399.5 592.833 399.5 599.5C399.5 606.167 399.5 612.833 399.5 619.5C406.167 619.5 412.833 619.5 419.5 619.5C419.5 639.5 419.5 659.5 419.5 679.5C412.833 679.5 406.167 679.5 399.5 679.5C392.833 679.5 386.167 679.5 379.5 679.5C379.5 672.833 379.5 666.167 379.5 659.5C372.833 659.5 366.167 659.5 359.5 659.5C359.5 646.167 359.5 632.833 359.5 619.5C359.5 612.833 359.5 606.167 359.5 599.5C352.833 599.5 346.167 599.5 339.5 599.5C339.5 586.167 339.5 572.833 339.5 559.5C319.5 559.5 299.5 559.5 279.5 559.5C279.5 566.167 279.5 572.833 279.5 579.5C272.833 579.5 266.167 579.5 259.5 579.5C259.5 592.833 259.5 606.167 259.5 619.5C252.833 619.5 246.167 619.5 239.5 619.5C239.5 632.833 239.5 646.167 239.5 659.5C232.833 659.5 226.167 659.5 219.5 659.5C219.5 666.167 219.5 672.833 219.5 679.5C212.833 679.5 206.167 679.5 199.5 679.5C192.833 679.5 186.167 679.5 179.5 679.5C179.5 659.5 179.5 639.5 179.5 619.5C186.167 619.5 192.833 619.5 199.5 619.5C206.167 619.5 212.833 619.5 219.5 619.5C219.5 612.833 219.5 606.167 219.5 599.5C226.167 599.5 232.833 599.5 239.5 599.5C239.5 592.833 239.5 586.167 239.5 579.5C232.833 579.5 226.167 579.5 219.5 579.5C219.5 572.833 219.5 566.167 219.5 559.5C206.167 559.5 192.833 559.5 179.5 559.5C179.5 566.167 179.5 572.833 179.5 579.5C166.167 579.5 152.833 579.5 139.5 579.5C139.5 586.167 139.5 592.833 139.5 599.5C119.5 599.5 99.5 599.5 79.5 599.5C66.1667 599.5 52.8333 599.5 39.5 599.5C39.5 592.833 39.5 586.167 39.5 579.5C46.1667 579.5 52.8333 579.5 59.5 579.5C59.5 572.833 59.5 566.167 59.5 559.5C72.8333 559.5 86.1667 559.5 99.5 559.5C99.5 552.833 99.5 546.167 99.5 539.5C106.167 539.5 112.833 539.5 119.5 539.5C119.5 532.833 119.5 526.167 119.5 519.5C126.167 519.5 132.833 519.5 139.5 519.5C139.5 506.167 139.5 492.833 139.5 479.5C146.167 479.5 152.833 479.5 159.5 479.5C159.5 472.833 159.5 466.167 159.5 459.5C159.5 452.833 159.5 446.167 159.5 439.5C166.167 439.5 172.833 439.5 179.5 439.5C179.5 419.5 179.5 399.5 179.5 379.5C186.167 379.5 192.833 379.5 199.5 379.5C199.5 372.833 199.5 366.167 199.5 359.5C212.833 359.5 226.167 359.5 239.5 359.5C239.5 366.167 239.5 372.833 239.5 379.5Z" fill="#FB6B40"/>
<path fill-rule="evenodd" clip-rule="evenodd" d="M139.5 519.5C146.167 519.5 152.833 519.5 159.5 519.5C159.5 526.167 159.5 532.833 159.5 539.5C152.833 539.5 146.167 539.5 139.5 539.5C139.5 532.833 139.5 526.167 139.5 519.5Z" fill="#FD8356"/>
<path fill-rule="evenodd" clip-rule="evenodd" d="M479.5 539.5C479.5 546.167 479.5 552.833 479.5 559.5C472.833 559.5 466.167 559.5 459.5 559.5C459.5 552.833 459.5 546.167 459.5 539.5C466.167 539.5 472.833 539.5 479.5 539.5Z" fill="#FD8356"/>
<path fill-rule="evenodd" clip-rule="evenodd" d="M99.5 559.5C106.167 559.5 112.833 559.5 119.5 559.5C119.5 566.167 119.5 572.833 119.5 579.5C112.833 579.5 106.167 579.5 99.5 579.5C99.5 572.833 99.5 566.167 99.5 559.5Z" fill="#FD8356"/>
<path fill-rule="evenodd" clip-rule="evenodd" d="M219.5 579.5C212.833 579.5 206.167 579.5 199.5 579.5C199.5 586.167 199.5 592.833 199.5 599.5C186.167 599.5 172.833 599.5 159.5 599.5C159.5 606.167 159.5 612.833 159.5 619.5C132.833 619.5 106.167 619.5 79.5 619.5C79.5 612.833 79.5 606.167 79.5 599.5C99.5 599.5 119.5 599.5 139.5 599.5C139.5 592.833 139.5 586.167 139.5 579.5C152.833 579.5 166.167 579.5 179.5 579.5C179.5 572.833 179.5 566.167 179.5 559.5C192.833 559.5 206.167 559.5 219.5 559.5C219.5 566.167 219.5 572.833 219.5 579.5Z" fill="#F05B2E"/>
<path fill-rule="evenodd" clip-rule="evenodd" d="M339.5 599.5C346.167 599.5 352.833 599.5 359.5 599.5C359.5 606.167 359.5 612.833 359.5 619.5C359.5 632.833 359.5 646.167 359.5 659.5C366.167 659.5 372.833 659.5 379.5 659.5C379.5 666.167 379.5 672.833 379.5 679.5C386.167 679.5 392.833 679.5 399.5 679.5C399.5 686.167 399.5 692.833 399.5 699.5C386.167 699.5 372.833 699.5 359.5 699.5C359.5 692.833 359.5 686.167 359.5 679.5C352.833 679.5 346.167 679.5 339.5 679.5C339.5 666.167 339.5 652.833 339.5 639.5C332.833 639.5 326.167 639.5 319.5 639.5C319.5 619.5 319.5 599.5 319.5 579.5C312.833 579.5 306.167 579.5 299.5 579.5C299.5 586.167 299.5 592.833 299.5 599.5C292.833 599.5 286.167 599.5 279.5 599.5C279.5 612.833 279.5 626.167 279.5 639.5C272.833 639.5 266.167 639.5 259.5 639.5C259.5 652.833 259.5 666.167 259.5 679.5C252.833 679.5 246.167 679.5 239.5 679.5C239.5 686.167 239.5 692.833 239.5 699.5C226.167 699.5 212.833 699.5 199.5 699.5C199.5 692.833 199.5 686.167 199.5 679.5C206.167 679.5 212.833 679.5 219.5 679.5C219.5 672.833 219.5 666.167 219.5 659.5C226.167 659.5 232.833 659.5 239.5 659.5C239.5 646.167 239.5 632.833 239.5 619.5C246.167 619.5 252.833 619.5 259.5 619.5C259.5 606.167 259.5 592.833 259.5 579.5C266.167 579.5 272.833 579.5 279.5 579.5C279.5 572.833 279.5 566.167 279.5 559.5C299.5 559.5 319.5 559.5 339.5 559.5C339.5 572.833 339.5 586.167 339.5 599.5Z" fill="#F05B2E"/>
<path fill-rule="evenodd" clip-rule="evenodd" d="M519.5 599.5C519.5 606.167 519.5 612.833 519.5 619.5C492.833 619.5 466.167 619.5 439.5 619.5C439.5 612.833 439.5 606.167 439.5 599.5C426.167 599.5 412.833 599.5 399.5 599.5C399.5 592.833 399.5 586.167 399.5 579.5C392.833 579.5 386.167 579.5 379.5 579.5C379.5 572.833 379.5 566.167 379.5 559.5C392.833 559.5 406.167 559.5 419.5 559.5C419.5 566.167 419.5 572.833 419.5 579.5C432.833 579.5 446.167 579.5 459.5 579.5C459.5 586.167 459.5 592.833 459.5 599.5C479.5 599.5 499.5 599.5 519.5 599.5Z" fill="#F05B2E"/>
<path fill-rule="evenodd" clip-rule="evenodd" d="M499.5 559.5C506.167 559.5 512.833 559.5 519.5 559.5C519.5 566.167 519.5 572.833 519.5 579.5C512.833 579.5 506.167 579.5 499.5 579.5C499.5 572.833 499.5 566.167 499.5 559.5Z" fill="#FD8356"/>
<path fill-rule="evenodd" clip-rule="evenodd" d="M219.5 579.5C219.5 586.167 219.5 592.833 219.5 599.5C212.833 599.5 206.167 599.5 199.5 599.5C199.5 592.833 199.5 586.167 199.5 579.5C206.167 579.5 212.833 579.5 219.5 579.5Z" fill="#FB6B40"/>
<path fill-rule="evenodd" clip-rule="evenodd" d="M219.5 579.5C226.167 579.5 232.833 579.5 239.5 579.5C239.5 586.167 239.5 592.833 239.5 599.5C232.833 599.5 226.167 599.5 219.5 599.5C219.5 592.833 219.5 586.167 219.5 579.5Z" fill="#FD8356"/>
<path fill-rule="evenodd" clip-rule="evenodd" d="M199.5 599.5C206.167 599.5 212.833 599.5 219.5 599.5C219.5 606.167 219.5 612.833 219.5 619.5C212.833 619.5 206.167 619.5 199.5 619.5C199.5 612.833 199.5 606.167 199.5 599.5Z" fill="#FD8356"/>
<path fill-rule="evenodd" clip-rule="evenodd" d="M339.5 599.5C346.167 599.5 352.833 599.5 359.5 599.5C359.5 606.167 359.5 612.833 359.5 619.5C352.833 619.5 346.167 619.5 339.5 619.5C339.5 612.833 339.5 606.167 339.5 599.5Z" fill="#FD8356"/>
<path fill-rule="evenodd" clip-rule="evenodd" d="M399.5 619.5C399.5 626.167 399.5 632.833 399.5 639.5C392.833 639.5 386.167 639.5 379.5 639.5C379.5 632.833 379.5 626.167 379.5 619.5C386.167 619.5 392.833 619.5 399.5 619.5Z" fill="#FD8356"/>
</g>
<defs>
<clipPath id="clip0_101_2">
<rect width="640" height="700" fill="white"/>
</clipPath>
</defs>
</svg>
